<svg width="22" height="22" xmlns="http://www.w3.org/2000/svg" version="1.1">
    <title>object_connection_round [#1096]</title>
    <g transform="translate(1,1)" fill="#cccccc">
        <g id="icons">
            <path id="object_connection_round-[#1096]"
                d="m6,15c0,-0.552 -0.448,-1 -1,-1l-2,0c-0.552,0 -1,0.448 -1,1l0,2c0,0.552 0.448,1 1,1l2,0c0.552,0 1,-0.448 1,-1l0,-2zm2,-1l0,4c0,1.10498 -0.895,2 -2,2l-4,0c-1.105,0 -2,-0.89502 -2,-2l0,-4c0,-1.10498 0.895,-2 2,-2l4,0c1.105,0 2,0.89502 2,2l0,0zm10,-11c0,-0.552 -0.448,-1 -1,-1l-2,0c-0.552,0 -1,0.448 -1,1l0,2c0,0.552 0.448,1 1,1l2,0c0.552,0 1,-0.448 1,-1l0,-2zm2,-1l0,4c0,1.10498 -0.895,2 -2,2l-4,0c-1.105,0 -2,-0.89502 -2,-2l0,-4c0,-1.10498 0.895,-2 2,-2l4,0c1.105,0 2,0.89502 2,2l0,0zm-3,8l-2,0c-0.552,0 -1,0.44312 -1,0.99512c0,0.552 0.448,0.99487 1,0.99487l0,2c0,0.55298 -0.448,1.01001 -1,1.01001l-2,0c0,-1 -0.448,-1.00488 -1,-1.00488c-0.552,0 -1,0.44287 -1,0.99487l0,2c0,0.55298 0.448,1.00513 1,1.00513c0.552,0 1,0.00488 1,-0.99512l3,0c1.105,0 2,-0.90503 2,-2.01001l0,-3c0.552,0 1,-0.44287 1,-0.99487c0,-0.552 -0.448,-0.99512 -1,-0.99512l0,0zm-7,-5c0,0.552 -0.448,1 -1,1c-0.552,0 -1,-0.448 -1,-1l-2,0c-0.552,0 -1,0.448 -1,1l0,2c0.552,0 1,0.448 1,1c0,0.552 -0.448,1 -1,1l-2,0c-0.552,0 -1,-0.448 -1,-1c0,-0.552 0.448,-1 1,-1l0,-3c0,-1.10498 0.895,-2 2,-2l3,0c0,-0.552 0.448,-1 1,-1c0.552,0 1,0.448 1,1l0,2z" />
        </g>
    </g>
</svg>
