<?xml version="1.0" encoding="utf-8"?>
<svg width="22" height="22" xmlns="http://www.w3.org/2000/svg" version="1.1" viewBox="2 2 20.9 20">
  <title>list [#1422]</title>
  <path id="svg_-2" d="M 11.548 6.3 L 5.563 6.3 C 4.993 6.3 4.613 5.92 4.613 5.35 C 4.613 4.78 5.088 4.4 5.563 4.4 L 11.548 4.4 C 12.118 4.4 12.498 4.78 12.498 5.35 C 12.498 5.92 12.023 6.3 11.548 6.3 Z M 12.498 2.5 L 4.518 2.5 C 3.378 2.5 2.523 3.355 2.523 4.4 L 2.523 6.3 C 2.523 7.345 3.378 8.2 4.518 8.2 L 12.498 8.2 C 13.638 8.2 14.493 7.345 14.493 6.3 L 14.493 4.4 C 14.493 3.355 13.638 2.5 12.498 2.5 Z" fill="#cccccc" style="stroke-width: 0.95;"/>
  <path id="svg_-2" d="M 19.433 12.95 L 5.468 12.95 C 4.898 12.95 4.518 12.57 4.518 12 C 4.518 11.43 4.993 11.05 5.468 11.05 L 19.433 11.05 C 20.003 11.05 20.383 11.43 20.383 12 C 20.383 12.57 19.908 12.95 19.433 12.95 Z M 20.383 9.15 L 4.518 9.15 C 3.378 9.15 2.523 10.005 2.523 11.05 L 2.523 12.95 C 2.523 13.995 3.378 14.85 4.518 14.85 L 20.383 14.85 C 21.523 14.85 22.378 13.995 22.378 12.95 L 22.378 11.05 C 22.378 10.005 21.523 9.15 20.383 9.15 Z" fill="#cccccc" style="stroke-width: 0.95;"/>
  <path id="path-1" d="M 19.433 19.6 L 5.468 19.6 C 4.898 19.6 4.518 19.22 4.518 18.65 C 4.518 18.08 4.993 17.7 5.468 17.7 L 19.433 17.7 C 20.003 17.7 20.383 18.08 20.383 18.65 C 20.383 19.22 19.908 19.6 19.433 19.6 Z M 20.383 15.8 L 4.518 15.8 C 3.378 15.8 2.523 16.655 2.523 17.7 L 2.523 19.6 C 2.523 20.645 3.378 21.5 4.518 21.5 L 20.383 21.5 C 21.523 21.5 22.378 20.645 22.378 19.6 L 22.378 17.7 C 22.378 16.655 21.523 15.8 20.383 15.8 Z" fill="#cccccc" style="stroke-width: 0.95;"/>
</svg>