<?xml version="1.0" encoding="utf-8"?>
<svg width="22" height="22" xmlns="http://www.w3.org/2000/svg" version="1.1" viewBox="1 1 20 20">
  <title>file_py [#1764]</title>
  <g transform="matrix(0.95, 0, 0, 0.95, 0.999996, 0.999511)" fill="#cccccc" style="transform-origin: 10px 10px;">
    <g id="icons">
      <path d="m4,15.00049c0,-0.552 -0.448,-1 -1,-1l-1,0l0,2l1,0c0.552,0 1,-0.448 1,-1m1.996,-0.16101c0.09,1.72998 -1.28601,3.16101 -2.996,3.16101l-1,0l0,1c0,0.552 -0.448,1 -1,1c-0.552,0 -1,-0.448 -1,-1l0,-6c0,-0.552 0.448,-1 1,-1l1.82999,0c1.625,0 3.08102,1.21606 3.16602,2.83899m6.004,-2.83899c-0.552,0 -1,0.448 -1,1l0,1c0,0.552 -0.448,1 -1,1c-0.552,0 -1,-0.448 -1,-1l0,-1c0,-0.552 -0.448,-1 -1,-1c-0.552,0 -1,0.448 -1,1l0,2c0,1.10498 0.89499,2 2,2l0,2c0,0.552 0.448,1 1,1c0.552,0 1,-0.448 1,-1l0,-2c1.10501,0 2,-0.89502 2,-2l0,-2c0,-0.552 -0.448,-1 -1,-1m8,-6.01501l0,12.01501c0,1.10498 -0.89499,2 -2,2l-0.021,0l-1.979,0c-0.552,0 -1,-0.448 -1,-1c0,-0.552 0.448,-1 1,-1l1,0c0.552,0 1,-0.448 1,-1l0,-9l-4,0c-1.10501,0 -2,-0.89502 -2,-2l0,-4l-9,0c-0.552,0 -1,0.448 -1,1l0,6c0,0.552 -0.448,1 -1,1c-0.552,0 -1,-0.448 -1,-1l0,-7c0,-1.10498 0.89499,-2 2,-2l11.58899,0c0.25101,0 0.49301,0.09399 0.677,0.26501l5.41202,4.98499c0.20499,0.18896 0.32199,0.45605 0.32199,0.73499"/>
    </g>
  </g>
</svg>