<?xml version="1.0" encoding="utf-8"?>
<svg width="800px" height="800px" viewBox="0 0 20 20" version="1.1" xmlns="http://www.w3.org/2000/svg">
  <title>file_favorite [#1609]</title>
  <desc>Created with Sketch.</desc>
  <g style="" transform="matrix(0.95, 0, 0, 0.95, 0.50003, 0.5)">
    <path d="M 9.36 15.119 L 8.047 16.4 C 7.841 16.6 7.747 16.888 7.795 17.17 L 8.107 18.98 C 8.202 19.542 7.755 20 7.248 20 C 7.114 20 6.976 19.968 6.842 19.898 L 5.218 19.044 C 5.091 18.978 4.952 18.944 4.812 18.944 C 4.673 18.944 4.533 18.978 4.407 19.044 L 2.783 19.898 C 2.649 19.968 2.511 20 2.377 20 C 1.87 20 1.421 19.542 1.518 18.98 L 1.828 17.17 C 1.878 16.888 1.783 16.6 1.578 16.4 L 0.264 15.119 C -0.253 14.615 0.032 13.737 0.747 13.633 L 2.563 13.369 C 2.847 13.327 3.091 13.15 3.22 12.892 L 4.031 11.247 C 4.191 10.923 4.501 10.761 4.812 10.761 C 5.123 10.761 5.433 10.923 5.594 11.247 L 6.405 12.892 C 6.533 13.15 6.777 13.327 7.061 13.369 L 8.877 13.633 C 9.592 13.737 9.878 14.615 9.36 15.119 Z" id="file_favorite-[#1609]" style="fill: rgb(204, 204, 204); stroke-width: 1;" stroke="none" stroke-width="1" fill-rule="evenodd"/>
    <g transform="matrix(1, 0, 0, 1, -0.00001, -0.00049)" fill="#cccccc">
      <g>
        <path d="M 20.00001 5.985479999999999 L 20.00001 18.00049 C 20.00001 19.10547 19.10502 20.00049 18.00001 20.00049 L 17.97901 20.00049 L 16.00001 20.00049 C 15.44801 20.00049 15.00001 19.55249 15.00001 19.00049 C 15.00001 18.44849 15.44801 18.00049 16.00001 18.00049 L 17.00001 18.00049 C 17.55201 18.00049 18.00001 17.55249 18.00001 17.00049 L 18.00001 8.00049 L 14.00001 8.00049 C 12.895 8.00049 12.00001 7.1054699999999995 12.00001 6.000489999999999 L 12.00001 2.000489999999999 L 3.0000099999999996 2.000489999999999 C 2.4480099999999996 2.000489999999999 2.0000099999999996 2.448489999999999 2.0000099999999996 3.000489999999999 L 2.0000099999999996 9.00049 C 2.0000099999999996 9.552489999999999 1.5520099999999997 10.00049 1.0000099999999996 10.00049 C 0.4480099999999996 10.00049 0.000009999999999621423 9.552489999999999 0.000009999999999621423 9.00049 L 0.000009999999999621423 2.000489999999999 C 0.000009999999999621423 0.8955099999999991 0.8949999999999997 0.0004899999999992133 2.0000099999999996 0.0004899999999992133 L 13.589 0.0004899999999992133 C 13.840010000000001 0.0004899999999992133 14.08201 0.09447999999999922 14.266 0.26549999999999924 L 19.67802 5.250489999999999 C 19.88301 5.439449999999999 20.00001 5.7065399999999995 20.00001 5.985479999999999"/>
      </g>
    </g>
  </g>
  <title>file_py [#1764]</title>
</svg>