<?xml version="1.0" encoding="utf-8"?>
<svg width="800px" height="800px" viewBox="0 0 20 20" version="1.1" xmlns="http://www.w3.org/2000/svg">
  <title>file_url [#1759]</title>
  <desc>Created with Sketch.</desc>
  <path d="M 19.725 6.044 L 14.275 0.311 C 14.086 0.113 13.824 0 13.55 0 L 2 0 C 0.896 0 0 0.896 0 2 L 0 9 C 0 9.552 0.448 10 1 10 C 1.553 10 2 9.552 2 9 L 2 3 C 2 2.448 2.448 2 3 2 L 12 2 L 12 6 C 12 7.105 12.896 8 14 8 L 18 8 L 18 9 C 18 9.552 18.448 10 19 10 C 19.553 10 20 9.552 20 9 L 20 6.733 C 20 6.477 19.902 6.23 19.725 6.044" id="file_url-[#1759]" stroke="none" stroke-width="1" fill-rule="evenodd" style="stroke-width: 1; fill: rgb(204, 204, 204);"/>
  <title>file_svg [#1771]</title>
  <desc>Created with Sketch.</desc>
  <title>file_eps [#1752]</title>
  <desc>Created with Sketch.</desc>
  <path d="M 38.221 9.024 C 38.221 9.029 38.224 9.032 38.224 9.037 C 38.224 9.041 38.221 9.045 38.221 9.05 L 38.221 9.024 Z" id="file_eps-[#1752]" fill="#000000" stroke="none" stroke-width="1" fill-rule="evenodd" style="stroke-width: 1;"/>
  <title>file_iso [#1770]</title>
  <desc>Created with Sketch.</desc>
  <g transform="matrix(1, 0, 0, 1, -14, 0)">
    <path d="M 17.772 18 L 16.5 18 C 16.224 18 16 17.776 16 17.5 L 16 13 C 16 12.448 15.553 12 15 12 C 14.448 12 14 12.448 14 13 L 14 18 L 14 19 C 14 19.552 14.448 20 15 20 L 16 20 L 17.772 20 C 18.325 20 18.772 19.552 18.772 19 C 18.772 18.448 18.325 18 17.772 18" id="file_url-[#1759]-2" stroke="none" stroke-width="1" fill-rule="evenodd" style="stroke-width: 1; fill: rgb(204, 204, 204);"/>
  </g>
  <path d="M 12.894 14 L 13.787 14 C 14.34 14 14.787 13.552 14.787 13 C 14.787 12.448 14.34 12 13.787 12 L 12.787 12 C 10.448 12 9.906 14 10.048 16.393 C 10.166 18.381 10.87 20 12.959 20 L 13.787 20 C 14.34 20 14.787 19.552 14.787 19 L 14.787 18 L 14.787 17 C 14.787 16.448 14.34 16 13.787 16 C 13.235 16 12.787 16.448 12.787 17 L 12.787 18 C 11.771 17.878 11.63 16.533 11.63 15.664 C 11.63 14.747 12.148 14 12.894 14" id="file_svg-[#1771]" stroke="none" stroke-width="1" fill-rule="evenodd" style="stroke-width: 1; fill: rgb(204, 204, 204);"/>
  <path d="M 8.805 12 L 6.007 12 C 5.455 12 5.007 12.549 5.007 13.098 L 5.007 19.067 C 5.007 19.616 5.455 19.958 6.007 19.958 L 8.805 19.958 C 9.358 19.958 9.805 19.564 9.805 19.015 L 9.805 18.989 C 9.805 18.44 9.358 17.969 8.805 17.969 L 7.007 17.969 L 7.007 16.974 L 8.805 16.974 C 9.358 16.974 9.805 16.58 9.805 16.031 L 9.805 16.005 C 9.805 15.456 9.358 14.984 8.805 14.984 L 7.007 14.984 L 7.007 13.989 L 8.805 13.989 C 9.358 13.989 9.805 13.595 9.805 13.046 L 9.805 13.02 C 9.805 12.471 9.358 12 8.805 12 Z" id="file_eps-[#1752]-2" stroke="none" stroke-width="1" fill-rule="evenodd" style="stroke-width: 1; fill: rgb(204, 204, 204);"/>
  <path d="M 20 13 L 20 19 C 20 19.552 19.477 20 19.034 20 L 16.212 20 C 15.77 20 15.202 19.552 15.202 19 L 15.202 13 C 15.202 12.447 15.758 12 16.2 12 L 19.041 12 C 19.484 12 20 12.447 20 13 Z M 18.291 14.5 C 18.291 14.223 18.113 14 17.891 14 L 17.266 14 C 17.046 14 16.866 14.223 16.866 14.5 L 16.866 17.5 C 16.866 17.776 17.046 18 17.266 18 L 17.891 18 C 18.113 18 18.291 17.776 18.291 17.5 L 18.291 14.5 Z" id="file_iso-[#1770]" stroke="none" stroke-width="1" fill-rule="evenodd" style="stroke-width: 1; fill: rgb(204, 204, 204);"/>
  <g transform="matrix(0.799714, 0, 0, 1, -11.195996, 8.715952)"/>
</svg>