<?xml version="1.0" encoding="utf-8"?>
<svg viewBox="0 0 34.5 34.5" xmlns="http://www.w3.org/2000/svg">
  <path d="M 24.25 0 C 26.586 0 28.5 1.925 28.5 4.25 L 28.5 9.788 L 26 9.788 L 26 4.25 C 26 3.303 25.202 2.5 24.25 2.5 L 10.25 2.5 C 9.297 2.5 8.5 3.302 8.5 4.25 L 8.5 30.25 C 8.5 31.197 9.298 32 10.25 32 L 24.25 32 C 25.202 32 26 31.197 26 30.25 L 26 25.042 L 28.5 25.042 L 28.5 30.25 C 28.5 32.574 26.586 34.5 24.25 34.5 L 10.25 34.5 C 7.913 34.5 6 32.574 6 30.25 L 6 4.25 C 6 1.925 7.913 0 10.25 0 Z M 17.25 22 C 19.517 22.002 21.384 23.78 21.495 26.044 L 21.5 26.249 C 21.5 28.599 19.599 30.5 17.25 30.5 C 14.902 30.501 12.999 28.598 13 26.25 C 12.999 23.902 14.902 21.999 17.25 22 Z M 17.25 24.5 C 16.282 24.5 15.5 25.282 15.5 26.25 C 15.5 27.218 16.282 28 17.25 28 C 18.17 28 18.921 27.294 18.994 26.393 L 19 26.25 C 19 25.287 18.215 24.501 17.25 24.501 Z M 22.237 4.25 C 23.335 4.25 24.223 5.149 24.223 6.25 C 24.223 7.356 23.335 8.25 22.237 8.25 C 21.136 8.247 20.246 7.351 20.25 6.25 C 20.25 5.145 21.138 4.25 22.237 4.25 Z" fill="#cccccc" style="stroke-width: 1;"/>
  <path d="M 34.158 17.069 L 32.476 18.712 C 32.208 18.97 32.089 19.341 32.151 19.702 L 32.551 22.024 C 32.674 22.747 32.099 23.335 31.448 23.335 C 31.275 23.335 31.098 23.293 30.927 23.202 L 28.844 22.109 C 28.68 22.022 28.5 21.978 28.321 21.978 C 28.142 21.978 27.96 22.022 27.802 22.109 L 25.717 23.202 C 25.547 23.293 25.366 23.335 25.197 23.335 C 24.545 23.335 23.971 22.747 24.094 22.024 L 24.492 19.702 C 24.555 19.341 24.435 18.97 24.17 18.712 L 22.481 17.069 C 21.823 16.422 22.186 15.293 23.104 15.159 L 25.434 14.823 C 25.801 14.768 26.11 14.54 26.277 14.209 L 27.319 12.096 C 27.523 11.682 27.923 11.473 28.321 11.473 C 28.718 11.473 29.119 11.682 29.327 12.096 L 30.366 14.209 C 30.532 14.54 30.844 14.768 31.208 14.823 L 33.541 15.159 C 34.46 15.293 34.827 16.422 34.158 17.069 Z" id="path-1" style="stroke-width: 43.184; fill: rgb(204, 204, 204);" stroke="none" stroke-width="1" fill-rule="evenodd"/>
</svg>