<?xml version="1.0" encoding="utf-8"?>
<svg width="50" height="50" version="1.1" viewBox="0 0 26.458 26.458" xmlns="http://www.w3.org/2000/svg" xmlns:bx="https://boxy-svg.com">
  <defs>
    <bx:export>
      <bx:file format="png" path="icon.png" width="128" height="128"/>
    </bx:export>
  </defs>
  <g>
    <animateMotion path="M 0 0 L 28.65 0.017" calcMode="spline" dur="10s" fill="freeze" repeatCount="indefinite" keyTimes="0; 0.2" keyPoints="0; 1" keySplines="0.42 0 0.58 1"/>
    <path d="M -20.183 14.069 C -21.127 14.069 -21.891 14.833 -21.891 15.776 C -21.891 16.718 -21.127 17.483 -20.183 17.483 C -19.239 17.483 -18.474 16.718 -18.474 15.776 C -18.474 14.833 -19.239 14.069 -20.183 14.069 Z M -10.6 14.069 C -11.544 14.069 -12.308 14.833 -12.308 15.776 C -12.308 16.718 -11.544 17.483 -10.6 17.483 C -9.656 17.483 -8.893 16.718 -8.893 15.776 C -8.893 14.833 -9.656 14.069 -10.6 14.069 Z M -26.214 13.289 L -4.57 13.289 L -4.57 22.905 L -6.968 22.905 L -6.968 20.512 L -9.036 20.512 L -9.036 19.621 L -9.781 19.621 L -9.781 20.512 L -11.443 20.512 L -11.443 19.621 L -12.184 19.621 L -12.184 20.512 L -13.848 20.512 L -13.848 19.621 L -14.588 19.621 L -14.588 20.512 L -16.251 20.512 L -16.251 19.621 L -16.996 19.621 L -16.996 20.512 L -18.66 20.512 L -18.66 19.621 L -19.4 19.621 L -19.4 20.512 L -21.063 20.512 L -21.063 19.621 L -21.747 19.621 L -21.747 20.512 L -23.815 20.512 L -23.815 22.905 L -26.214 22.905 L -26.214 13.289 Z M -26.709 10.875 C -27.775 10.875 -28.633 11.732 -28.633 12.798 L -28.633 23.383 C -28.633 24.449 -27.775 25.306 -26.709 25.306 L -23.335 25.306 C -22.268 25.306 -21.411 24.449 -21.411 23.383 L -21.411 22.907 L -9.398 22.907 L -9.398 23.383 C -9.398 24.449 -8.54 25.306 -7.474 25.306 L -4.099 25.306 C -3.033 25.306 -2.175 24.449 -2.175 23.383 L -2.175 12.798 C -2.175 11.732 -3.033 10.875 -4.099 10.875 L -7.474 10.875 C -12.957 10.91 -18.605 10.889 -23.335 10.875 L -26.709 10.875 Z" style="stroke-width: 1.136; fill-rule: nonzero; paint-order: stroke; fill: rgb(204, 204, 204);"/>
    <path d="M 8.45 14.069 C 7.506 14.069 6.742 14.833 6.742 15.776 C 6.742 16.718 7.506 17.483 8.45 17.483 C 9.394 17.483 10.159 16.718 10.159 15.776 C 10.159 14.833 9.394 14.069 8.45 14.069 Z M 18.033 14.069 C 17.089 14.069 16.325 14.833 16.325 15.776 C 16.325 16.718 17.089 17.483 18.033 17.483 C 18.977 17.483 19.74 16.718 19.74 15.776 C 19.74 14.833 18.977 14.069 18.033 14.069 Z M 2.419 13.289 L 24.063 13.289 L 24.063 22.905 L 21.665 22.905 L 21.665 20.512 L 19.597 20.512 L 19.597 19.621 L 18.852 19.621 L 18.852 20.512 L 17.19 20.512 L 17.19 19.621 L 16.449 19.621 L 16.449 20.512 L 14.785 20.512 L 14.785 19.621 L 14.045 19.621 L 14.045 20.512 L 12.382 20.512 L 12.382 19.621 L 11.637 19.621 L 11.637 20.512 L 9.973 20.512 L 9.973 19.621 L 9.233 19.621 L 9.233 20.512 L 7.57 20.512 L 7.57 19.621 L 6.886 19.621 L 6.886 20.512 L 4.818 20.512 L 4.818 22.905 L 2.419 22.905 L 2.419 13.289 Z M 1.924 10.875 C 0.858 10.875 0 11.732 0 12.798 L 0 23.383 C 0 24.449 0.858 25.306 1.924 25.306 L 5.298 25.306 C 6.365 25.306 7.222 24.449 7.222 23.383 L 7.222 22.907 L 19.235 22.907 L 19.235 23.383 C 19.235 24.449 20.093 25.306 21.159 25.306 L 24.534 25.306 C 25.6 25.306 26.458 24.449 26.458 23.383 L 26.458 12.798 C 26.458 11.732 25.6 10.875 24.534 10.875 L 21.159 10.875 C 15.676 10.91 10.028 10.889 5.298 10.875 L 1.924 10.875 Z" style="stroke-width: 1.136; fill-rule: nonzero; paint-order: stroke; fill: rgb(204, 204, 204);"/>
  </g>
  <g transform="matrix(1.136414, 0, 0, 1.136414, -1.512775, -19.055931)">
    <path d="M 9.036 20.465 L 8.221 21.262 C 8.091 21.386 8.033 21.566 8.063 21.741 L 8.257 22.866 C 8.316 23.216 8.038 23.501 7.723 23.501 C 7.64 23.501 7.553 23.481 7.471 23.437 L 6.46 22.907 C 6.381 22.865 6.295 22.844 6.208 22.844 C 6.122 22.844 6.033 22.865 5.956 22.907 L 4.946 23.437 C 4.863 23.481 4.777 23.501 4.694 23.501 C 4.379 23.501 4.099 23.216 4.16 22.866 L 4.353 21.741 C 4.383 21.566 4.324 21.386 4.197 21.262 L 3.379 20.465 C 3.059 20.152 3.234 19.605 3.68 19.541 L 4.809 19.377 C 4.987 19.351 5.137 19.241 5.217 19.08 L 5.722 18.057 C 5.821 17.856 6.014 17.755 6.208 17.755 C 6.4 17.755 6.593 17.856 6.694 18.057 L 7.198 19.08 C 7.279 19.241 7.43 19.351 7.607 19.377 L 8.736 19.541 C 9.181 19.605 9.359 20.152 9.036 20.465 Z" id="file_favorite-[#1609]" style="stroke-width: 38; fill: rgb(204, 204, 204);" stroke="none" stroke-width="1" fill-rule="evenodd"/>
    <path d="M 15.799 20.465 L 14.984 21.262 C 14.855 21.386 14.797 21.566 14.826 21.741 L 15.02 22.866 C 15.08 23.216 14.801 23.501 14.486 23.501 C 14.403 23.501 14.317 23.481 14.234 23.437 L 13.224 22.907 C 13.145 22.865 13.058 22.844 12.972 22.844 C 12.885 22.844 12.797 22.865 12.72 22.907 L 11.71 23.437 C 11.627 23.481 11.54 23.501 11.457 23.501 C 11.142 23.501 10.863 23.216 10.923 22.866 L 11.116 21.741 C 11.147 21.566 11.088 21.386 10.96 21.262 L 10.142 20.465 C 9.822 20.152 9.998 19.605 10.444 19.541 L 11.573 19.377 C 11.75 19.351 11.9 19.241 11.981 19.08 L 12.486 18.057 C 12.585 17.856 12.778 17.755 12.972 17.755 C 13.164 17.755 13.357 17.856 13.458 18.057 L 13.962 19.08 C 14.042 19.241 14.193 19.351 14.37 19.377 L 15.5 19.541 C 15.945 19.605 16.123 20.152 15.799 20.465 Z" id="path-1" style="stroke-width: 38; fill: rgb(204, 204, 204);" stroke="none" stroke-width="1" fill-rule="evenodd"/>
    <path d="M 22.564 20.465 L 21.749 21.262 C 21.619 21.386 21.561 21.566 21.591 21.741 L 21.785 22.866 C 21.844 23.216 21.566 23.501 21.251 23.501 C 21.168 23.501 21.081 23.481 20.999 23.437 L 19.988 22.907 C 19.909 22.865 19.823 22.844 19.736 22.844 C 19.65 22.844 19.562 22.865 19.484 22.907 L 18.474 23.437 C 18.391 23.481 18.305 23.501 18.222 23.501 C 17.907 23.501 17.627 23.216 17.688 22.866 L 17.881 21.741 C 17.911 21.566 17.852 21.386 17.725 21.262 L 16.907 20.465 C 16.587 20.152 16.762 19.605 17.208 19.541 L 18.337 19.377 C 18.515 19.351 18.665 19.241 18.745 19.08 L 19.25 18.057 C 19.349 17.856 19.542 17.755 19.736 17.755 C 19.928 17.755 20.122 17.856 20.222 18.057 L 20.726 19.08 C 20.807 19.241 20.958 19.351 21.135 19.377 L 22.264 19.541 C 22.709 19.605 22.887 20.152 22.564 20.465 Z" id="path-2" style="stroke-width: 38; fill: rgb(204, 204, 204);" stroke="none" stroke-width="1" fill-rule="evenodd"/>
  </g>
</svg>