<?xml version="1.0" encoding="utf-8"?>
<svg xmlns="http://www.w3.org/2000/svg" viewBox="0 0 70.47 71.56" id="icon">
  <g transform="matrix(0.763765, 0, 0, 0.763765, -0.015001, 0.000058)"
    style="transform-origin: 35.25px 35.78px;">
    <path fill="#f6c407" stroke="#b99b00"
      d="M 9.438 17.106 C 20.855 7.064 41.853 7.064 53.263 17.106 L 59.205 17.106 C 60.226 17.09 61.062 17.913 61.062 18.934 L 61.062 56.504 C 61.062 57.51 60.248 58.327 59.242 58.331 L 31.35 58.331 C 30.635 58.347 29.965 58.682 29.523 59.245 L 27.696 61.072 C 27.257 61.634 26.589 61.969 25.876 61.986 L 20.394 61.986 C 19.679 61.97 19.009 61.634 18.567 61.072 L 16.74 59.245 C 16.301 58.683 15.633 58.347 14.92 58.331 L 11.295 58.331 C 10.274 58.348 9.438 57.525 9.438 56.504 L 9.438 17.106 Z"
      style="" />
    <path fill="#fff"
      d="M 49.445 24.527 L 41.125 21.088 L 41.125 19.602 L 41.125 19.476 C 41.125 17.247 37.931 16.133 34.047 16.133 C 30.162 16.133 26.968 17.277 26.968 19.476 L 26.968 21.088 L 18.649 24.527 L 18.649 47.271 L 34.047 53.629 L 49.445 47.271 L 49.445 39.331 L 49.445 24.527 Z M 30.348 19.208 C 31.548 18.83 32.803 18.649 34.062 18.674 C 35.32 18.648 36.575 18.829 37.775 19.208 C 37.996 19.288 38.209 19.385 38.414 19.498 C 38.21 19.613 37.996 19.71 37.775 19.788 C 36.575 20.167 35.32 20.348 34.062 20.323 C 32.803 20.347 31.548 20.166 30.348 19.788 C 30.127 19.71 29.913 19.613 29.709 19.498 C 29.915 19.387 30.128 19.29 30.348 19.208 Z M 29.479 22.18 C 30.951 22.666 32.496 22.897 34.047 22.863 C 35.596 22.894 37.14 22.665 38.615 22.187 L 38.615 23.539 C 38.615 23.539 38.615 23.583 38.615 23.702 L 38.615 23.539 C 38.351 23.727 38.061 23.875 37.753 23.977 C 36.553 24.357 35.298 24.537 34.039 24.512 C 32.78 24.536 31.526 24.356 30.325 23.977 C 30.021 23.874 29.733 23.726 29.471 23.539 L 29.471 23.702 C 29.471 23.583 29.471 23.531 29.471 23.539 L 29.479 22.18 Z M 32.791 50.406 L 21.159 45.6 L 21.159 38.915 L 21.159 27.253 L 32.791 32.051 L 32.791 50.406 Z M 23.18 25.366 L 26.946 23.806 L 26.946 23.843 C 27.079 25.953 30.221 27.045 34.024 27.045 C 37.827 27.045 40.962 25.953 41.096 23.843 L 41.096 23.806 L 44.862 25.366 L 34.024 29.823 L 23.18 25.366 Z M 46.949 45.6 L 35.302 50.383 L 35.302 32.051 L 46.949 27.253 L 46.949 45.6 Z"
      style="" />
    <animateTransform type="rotate" additive="sum" attributeName="transform" values="0;359"
      begin="0s" dur="3s" keyTimes="0; 1" calcMode="spline" keySplines="0.45 0 0.55 1"
      repeatCount="indefinite" />
  </g>
</svg>